<svg width="12" height="14" viewBox="0 0 12 14" fill="none" xmlns="http://www.w3.org/2000/svg">
<path d="M5.60861 0C2.51601 0 0 2.51604 0 5.60861V5.76365C0 7.32771 0.896711 9.15034 2.6653 11.1808C3.9474 12.6528 5.21158 13.6791 5.26474 13.7221L5.60861 14L5.95249 13.7222C6.00567 13.6792 7.26986 12.6528 8.55192 11.1808C10.3205 9.15034 11.2172 7.32774 11.2172 5.76368V5.60864C11.2172 2.51604 8.70122 0 5.60861 0ZM10.1229 5.76368C10.1229 8.40686 6.71718 11.6065 5.60861 12.5778C4.49974 11.6062 1.09435 8.40667 1.09435 5.76368V5.60864C1.09435 3.11948 3.11946 1.09438 5.60861 1.09438C8.09777 1.09438 10.1229 3.11948 10.1229 5.60864V5.76368Z" fill="#437FC8"/>
</svg>
