<svg width="25" height="25" viewBox="0 0 25 25" fill="none" xmlns="http://www.w3.org/2000/svg">
<path d="M23.9494 8.82359C23.9496 6.47564 23.0293 4.26235 21.3583 2.59132C19.6873 0.920296 17.474 0 15.1258 0H9.8978C9.89761 0 9.89761 0 9.89761 0C7.54986 0 5.33638 0.920296 3.66554 2.59113C1.99451 4.26235 1.07422 6.47564 1.07422 8.82359V12.9332C1.07422 14.7516 1.62888 16.5007 2.6783 17.9916C3.60413 19.3069 4.84924 20.3344 6.30093 20.9858V23.3463C6.30093 24.5668 6.98433 25 7.5695 25C7.98759 25 8.40569 24.7936 8.81271 24.3868L11.4426 21.7569L15.126 21.7567C17.474 21.7567 19.6873 20.8364 21.3583 19.1656C23.0293 17.4946 23.9496 15.2811 23.9496 12.9332L23.9494 8.82359ZM15.126 20.2919L11.1393 20.2921C10.9449 20.2921 10.7588 20.3691 10.6215 20.5065L7.77702 23.3509C7.7734 23.3547 7.76958 23.3583 7.76577 23.362C7.76577 23.3568 7.76577 23.3515 7.76577 23.3463V20.4969C7.76577 20.1931 7.57828 19.9209 7.29446 19.8126C4.45023 18.7273 2.53925 15.9626 2.53925 12.9332V8.82359C2.53925 6.86684 3.30715 5.02129 4.70142 3.62682C6.0957 2.23274 7.94106 1.46484 9.8978 1.46484H15.1258C17.0826 1.46484 18.9281 2.23274 20.3224 3.62701C21.7169 5.02148 22.4848 6.86703 22.4846 8.82359L22.4848 12.9332C22.4846 16.9909 19.1835 20.2919 15.126 20.2919Z" fill="#437FC8"/>
<path d="M14.4596 11.9794C14.1737 11.6933 13.71 11.6933 13.4239 11.9794L12.8323 12.5709L10.5396 10.2784L11.1313 9.68697C11.2686 9.54964 11.3459 9.36329 11.3459 9.16893C11.3459 8.97476 11.2686 8.78841 11.1313 8.65108L8.35762 5.87742C8.22029 5.74009 8.03413 5.66284 7.83977 5.66284C7.6456 5.66284 7.45926 5.74009 7.32193 5.87742L5.38025 7.8191C4.33025 8.86909 4.33025 10.5779 5.38044 11.6285L11.4822 17.7306C11.9896 18.2378 12.6661 18.517 13.3869 18.517C14.1079 18.517 14.7844 18.2378 15.2918 17.7306L17.2335 15.7891C17.3708 15.6516 17.448 15.4655 17.448 15.2711C17.448 15.0769 17.3708 14.8906 17.2335 14.7533L14.4596 11.9794ZM14.2559 16.6946C14.0253 16.9252 13.7167 17.0522 13.3869 17.0522C13.0571 17.0522 12.7485 16.9252 12.5179 16.6946L6.41632 10.5926C5.93719 10.1134 5.937 9.33372 6.41613 8.85479L7.83977 7.43095L9.57756 9.16893L8.9859 9.7604C8.84857 9.89773 8.77132 10.0841 8.77132 10.2782C8.77132 10.4726 8.84857 10.6588 8.9859 10.7963L12.3142 14.1246C12.6003 14.4105 13.064 14.4107 13.3501 14.1246L13.9418 13.5331L15.6795 15.2709L14.2559 16.6946Z" fill="#437FC8"/>
<path d="M12.6896 3.23999C12.285 3.23999 11.9572 3.56786 11.9572 3.97241C11.9572 4.37677 12.285 4.70483 12.6896 4.70483C14.3658 4.70483 15.9418 5.35753 17.127 6.54295C18.3124 7.72817 18.9651 9.30402 18.9651 10.9804C18.9651 11.3848 19.293 11.7128 19.6976 11.7128C20.1019 11.7128 20.43 11.3849 20.43 10.9804C20.43 8.91283 19.6249 6.96905 18.1629 5.50706C16.7009 4.04508 14.7571 3.23999 12.6896 3.23999Z" fill="#437FC8"/>
<path d="M15.8272 10.9802C15.8272 11.3845 16.1552 11.7126 16.5596 11.7126C16.9641 11.7126 17.292 11.3845 17.292 10.9802C17.292 8.44244 15.2273 6.37793 12.6896 6.37793C12.285 6.37793 11.9572 6.7058 11.9572 7.11035C11.9572 7.5149 12.285 7.84277 12.6896 7.84277C14.4197 7.84277 15.8272 9.25021 15.8272 10.9802Z" fill="#437FC8"/>
</svg>
